<svg xmlns="http://www.w3.org/2000/svg" xmlns:xlink="http://www.w3.org/1999/xlink" viewBox="0 0 616.18 383.98"><defs><style>.cls-1{fill:url(#linear-gradient);}.cls-2{fill:url(#linear-gradient-2);}.cls-3{fill:url(#linear-gradient-3);}.cls-4{opacity:0.5;}.cls-5{fill:#fff;}.cls-6{fill:#60696d;}.cls-7{fill:#4f585b;}.cls-8{fill:#172d35;}.cls-9{fill:#008fd7;}.cls-10{opacity:0.6;}.cls-11{fill:#333c5c;}.cls-12{font-size:77.94px;fill:#58bf44;font-family:PressStart2P-Regular, Press Start 2P;}</style><linearGradient id="linear-gradient" x1="62.81" y1="123.99" x2="616.18" y2="123.99" gradientUnits="userSpaceOnUse"><stop offset="0" stop-color="#5b38d2"/><stop offset="1" stop-color="#cf4da7"/></linearGradient><linearGradient id="linear-gradient-2" x1="114.79" y1="25.45" x2="165.69" y2="25.45" xlink:href="#linear-gradient"/><linearGradient id="linear-gradient-3" x1="0" y1="224.7" x2="50.9" y2="224.7" xlink:href="#linear-gradient"/></defs><title>Asset 20</title><g id="Layer_2" data-name="Layer 2"><g id="Layer_1-2" data-name="Layer 1"><path class="cls-1" d="M616.18,223.08A25,25,0,0,1,591.27,248H87.72a24.91,24.91,0,0,1,0-49.81H193.84a24.91,24.91,0,0,0,0-49.81H80.48a24.91,24.91,0,0,1,7.23-48.73H314a24.91,24.91,0,0,0,0-49.81H199.26a24.91,24.91,0,0,1,0-49.81H479.73a24.91,24.91,0,0,1,0,49.81H416.92a24.91,24.91,0,0,0,0,49.81H591.27a24.91,24.91,0,0,1,0,49.81h-6.84a24.63,24.63,0,0,0-7.23-1.08H296.72a25,25,0,0,0-24.91,24.91,25,25,0,0,0,24.91,24.91H591.27A25,25,0,0,1,616.18,223.08Z"/><circle class="cls-2" cx="140.24" cy="25.45" r="25.45"/><circle class="cls-3" cx="25.45" cy="224.7" r="25.45"/><g class="cls-4"><circle class="cls-5" cx="228.12" cy="124.5" r="1.93"/><circle class="cls-5" cx="254.72" cy="115.63" r="1.93"/><path class="cls-5" d="M208.08,133.87a2.43,2.43,0,1,1,2.43-2.43A2.43,2.43,0,0,1,208.08,133.87Zm0-3.85a1.43,1.43,0,1,0,1.43,1.43A1.43,1.43,0,0,0,208.08,130Z"/><path class="cls-5" d="M205.26,118.07l3.42,3.12c.71.65,1.78-.41,1.06-1.06L206.32,117c-.71-.65-1.78.41-1.06,1.06Z"/><path class="cls-5" d="M208.53,116.86l-3.12,3.42c-.65.71.41,1.78,1.06,1.06l3.12-3.42c.65-.71-.41-1.78-1.06-1.06Z"/><path class="cls-5" d="M254.8,123.82l-3.15,3.39c-.66.71.4,1.77,1.06,1.06l3.15-3.39c.66-.71-.4-1.77-1.06-1.06Z"/><path class="cls-5" d="M256,127.09l-3.39-3.15c-.71-.66-1.77.4-1.06,1.06l3.39,3.15c.71.66,1.77-.4,1.06-1.06Z"/><circle class="cls-5" cx="358.07" cy="124.5" r="1.93"/><circle class="cls-5" cx="384.67" cy="115.63" r="1.93"/><path class="cls-5" d="M338,133.87a2.43,2.43,0,1,1,2.43-2.43A2.43,2.43,0,0,1,338,133.87Zm0-3.85a1.43,1.43,0,1,0,1.43,1.43A1.43,1.43,0,0,0,338,130Z"/><path class="cls-5" d="M335.21,118.07l3.42,3.12c.71.65,1.78-.41,1.06-1.06L336.27,117c-.71-.65-1.78.41-1.06,1.06Z"/><path class="cls-5" d="M338.48,116.86l-3.12,3.42c-.65.71.41,1.78,1.06,1.06l3.12-3.42c.65-.71-.41-1.78-1.06-1.06Z"/><path class="cls-5" d="M384.75,123.82l-3.15,3.39c-.66.71.4,1.77,1.06,1.06l3.15-3.39c.66-.71-.4-1.77-1.06-1.06Z"/><path class="cls-5" d="M385.93,127.09l-3.39-3.15c-.71-.66-1.77.4-1.06,1.06l3.39,3.15c.71.66,1.77-.4,1.06-1.06Z"/><circle class="cls-5" cx="560.58" cy="124.5" r="1.93"/><circle class="cls-5" cx="587.18" cy="115.63" r="1.93"/><path class="cls-5" d="M540.53,133.87a2.43,2.43,0,1,1,2.43-2.43A2.43,2.43,0,0,1,540.53,133.87Zm0-3.85a1.43,1.43,0,1,0,1.43,1.43A1.43,1.43,0,0,0,540.53,130Z"/><path class="cls-5" d="M537.72,118.07l3.42,3.12c.71.65,1.78-.41,1.06-1.06L538.78,117c-.71-.65-1.78.41-1.06,1.06Z"/><path class="cls-5" d="M541,116.86l-3.12,3.42c-.65.71.41,1.78,1.06,1.06l3.12-3.42c.65-.71-.41-1.78-1.06-1.06Z"/><path class="cls-5" d="M587.26,123.82l-3.15,3.39c-.66.71.4,1.77,1.06,1.06l3.15-3.39c.66-.71-.4-1.77-1.06-1.06Z"/><path class="cls-5" d="M588.44,127.09l-3.39-3.15c-.71-.66-1.77.4-1.06,1.06l3.39,3.15c.71.66,1.77-.4,1.06-1.06Z"/><circle class="cls-5" cx="111.17" cy="124.5" r="1.93"/><circle class="cls-5" cx="137.77" cy="115.63" r="1.93"/><path class="cls-5" d="M91.12,133.87a2.43,2.43,0,1,1,2.43-2.43A2.43,2.43,0,0,1,91.12,133.87Zm0-3.85a1.43,1.43,0,1,0,1.43,1.43A1.43,1.43,0,0,0,91.12,130Z"/><path class="cls-5" d="M88.31,118.07l3.42,3.12c.71.65,1.78-.41,1.06-1.06L89.37,117c-.71-.65-1.78.41-1.06,1.06Z"/><path class="cls-5" d="M91.57,116.86l-3.12,3.42c-.65.71.41,1.78,1.06,1.06l3.12-3.42c.65-.71-.41-1.78-1.06-1.06Z"/><path class="cls-5" d="M137.85,123.82l-3.15,3.39c-.66.71.4,1.77,1.06,1.06l3.15-3.39c.66-.71-.4-1.77-1.06-1.06Z"/><path class="cls-5" d="M139,127.09l-3.39-3.15c-.71-.66-1.77.4-1.06,1.06l3.39,3.15c.71.66,1.77-.4,1.06-1.06Z"/></g><g class="cls-4"><circle class="cls-5" cx="219.46" cy="25.95" r="1.93"/><circle class="cls-5" cx="246.06" cy="17.09" r="1.93"/><path class="cls-5" d="M199.41,35.32a2.43,2.43,0,1,1,2.43-2.43A2.43,2.43,0,0,1,199.41,35.32Zm0-3.85a1.43,1.43,0,1,0,1.43,1.43A1.43,1.43,0,0,0,199.41,31.47Z"/><path class="cls-5" d="M196.6,19.53,200,22.65c.71.65,1.78-.41,1.06-1.06l-3.42-3.12c-.71-.65-1.78.41-1.06,1.06Z"/><path class="cls-5" d="M199.86,18.32l-3.12,3.42c-.65.71.41,1.78,1.06,1.06l3.12-3.42c.65-.71-.41-1.78-1.06-1.06Z"/><path class="cls-5" d="M246.14,25.27,243,28.66c-.66.71.4,1.77,1.06,1.06l3.15-3.39c.66-.71-.4-1.77-1.06-1.06Z"/><path class="cls-5" d="M247.32,28.54l-3.39-3.15c-.71-.66-1.77.4-1.06,1.06l3.39,3.15c.71.66,1.77-.4,1.06-1.06Z"/><circle class="cls-5" cx="326.67" cy="25.95" r="1.93"/><circle class="cls-5" cx="353.27" cy="17.09" r="1.93"/><path class="cls-5" d="M306.62,35.32a2.43,2.43,0,1,1,2.43-2.43A2.43,2.43,0,0,1,306.62,35.32Zm0-3.85a1.43,1.43,0,1,0,1.43,1.43A1.43,1.43,0,0,0,306.62,31.47Z"/><path class="cls-5" d="M303.81,19.53l3.42,3.12c.71.65,1.78-.41,1.06-1.06l-3.42-3.12c-.71-.65-1.78.41-1.06,1.06Z"/><path class="cls-5" d="M307.07,18.32,304,21.74c-.65.71.41,1.78,1.06,1.06l3.12-3.42c.65-.71-.41-1.78-1.06-1.06Z"/><path class="cls-5" d="M353.35,25.27l-3.15,3.39c-.66.71.4,1.77,1.06,1.06l3.15-3.39c.66-.71-.4-1.77-1.06-1.06Z"/><path class="cls-5" d="M354.53,28.54l-3.39-3.15c-.71-.66-1.77.4-1.06,1.06l3.39,3.15c.71.66,1.77-.4,1.06-1.06Z"/><circle class="cls-5" cx="454.45" cy="25.95" r="1.93"/><circle class="cls-5" cx="481.05" cy="17.09" r="1.93"/><path class="cls-5" d="M434.41,35.32a2.43,2.43,0,1,1,2.43-2.43A2.43,2.43,0,0,1,434.41,35.32Zm0-3.85a1.43,1.43,0,1,0,1.43,1.43A1.43,1.43,0,0,0,434.41,31.47Z"/><path class="cls-5" d="M431.59,19.53,435,22.65c.71.65,1.78-.41,1.06-1.06l-3.42-3.12c-.71-.65-1.78.41-1.06,1.06Z"/><path class="cls-5" d="M434.86,18.32l-3.12,3.42c-.65.71.41,1.78,1.06,1.06l3.12-3.42c.65-.71-.41-1.78-1.06-1.06Z"/><path class="cls-5" d="M481.13,25.27,478,28.66c-.66.71.4,1.77,1.06,1.06l3.15-3.39c.66-.71-.4-1.77-1.06-1.06Z"/><path class="cls-5" d="M482.31,28.54l-3.39-3.15c-.71-.66-1.77.4-1.06,1.06l3.39,3.15c.71.66,1.77-.4,1.06-1.06Z"/></g><g class="cls-4"><circle class="cls-5" cx="157.73" cy="225.21" r="1.93"/><circle class="cls-5" cx="184.33" cy="216.34" r="1.93"/><path class="cls-5" d="M137.69,234.58a2.43,2.43,0,1,1,2.43-2.43A2.43,2.43,0,0,1,137.69,234.58Zm0-3.85a1.43,1.43,0,1,0,1.43,1.43A1.43,1.43,0,0,0,137.69,230.72Z"/><path class="cls-5" d="M134.87,218.79l3.42,3.12c.71.65,1.78-.41,1.06-1.06l-3.42-3.12c-.71-.65-1.78.41-1.06,1.06Z"/><path class="cls-5" d="M138.14,217.58,135,221c-.65.71.41,1.78,1.06,1.06l3.12-3.42c.65-.71-.41-1.78-1.06-1.06Z"/><path class="cls-5" d="M184.41,224.53l-3.15,3.39c-.66.71.4,1.77,1.06,1.06l3.15-3.39c.66-.71-.4-1.77-1.06-1.06Z"/><path class="cls-5" d="M185.59,227.8l-3.39-3.15c-.71-.66-1.77.4-1.06,1.06l3.39,3.15c.71.66,1.77-.4,1.06-1.06Z"/><circle class="cls-5" cx="326.67" cy="225.21" r="1.93"/><circle class="cls-5" cx="353.27" cy="216.34" r="1.93"/><path class="cls-5" d="M306.62,234.58a2.43,2.43,0,1,1,2.43-2.43A2.43,2.43,0,0,1,306.62,234.58Zm0-3.85a1.43,1.43,0,1,0,1.43,1.43A1.43,1.43,0,0,0,306.62,230.72Z"/><path class="cls-5" d="M303.81,218.79l3.42,3.12c.71.65,1.78-.41,1.06-1.06l-3.42-3.12c-.71-.65-1.78.41-1.06,1.06Z"/><path class="cls-5" d="M307.07,217.58,304,221c-.65.71.41,1.78,1.06,1.06l3.12-3.42c.65-.71-.41-1.78-1.06-1.06Z"/><path class="cls-5" d="M353.35,224.53l-3.15,3.39c-.66.71.4,1.77,1.06,1.06l3.15-3.39c.66-.71-.4-1.77-1.06-1.06Z"/><path class="cls-5" d="M354.53,227.8l-3.39-3.15c-.71-.66-1.77.4-1.06,1.06l3.39,3.15c.71.66,1.77-.4,1.06-1.06Z"/><circle class="cls-5" cx="530.26" cy="225.21" r="1.93"/><circle class="cls-5" cx="556.86" cy="216.34" r="1.93"/><path class="cls-5" d="M510.21,234.58a2.43,2.43,0,1,1,2.43-2.43A2.43,2.43,0,0,1,510.21,234.58Zm0-3.85a1.43,1.43,0,1,0,1.43,1.43A1.43,1.43,0,0,0,510.21,230.72Z"/><path class="cls-5" d="M507.39,218.79l3.42,3.12c.71.65,1.78-.41,1.06-1.06l-3.42-3.12c-.71-.65-1.78.41-1.06,1.06Z"/><path class="cls-5" d="M510.66,217.58,507.54,221c-.65.71.41,1.78,1.06,1.06l3.12-3.42c.65-.71-.41-1.78-1.06-1.06Z"/><path class="cls-5" d="M556.94,224.53l-3.15,3.39c-.66.71.4,1.77,1.06,1.06l3.15-3.39c.66-.71-.4-1.77-1.06-1.06Z"/><path class="cls-5" d="M558.12,227.8l-3.39-3.15c-.71-.66-1.77.4-1.06,1.06l3.39,3.15c.71.66,1.77-.4,1.06-1.06Z"/></g><rect class="cls-6" x="169" y="26.09" width="314.86" height="354.31"/><rect class="cls-7" x="170.29" y="361.86" width="312.76" height="8.4"/><path class="cls-8" d="M486.36,384H166.5V24.67H486.36ZM171.5,379H481.36V29.67H171.5Z"/><rect class="cls-6" x="122" y="48.05" width="412.65" height="311.47"/><rect class="cls-7" x="125.39" y="49.05" width="7.39" height="311.47"/><rect class="cls-7" x="527.46" y="49.05" width="6.54" height="311.47"/><rect class="cls-7" x="124.86" y="49.51" width="411.14" height="6.97"/><rect class="cls-7" x="123" y="351.48" width="413" height="7"/><rect class="cls-9" x="153.61" y="78.69" width="351.78" height="250.2"/><g class="cls-10"><rect class="cls-11" x="152.45" y="78.69" width="351.78" height="6.79"/><rect class="cls-11" x="154" y="321.48" width="353.87" height="7"/><rect class="cls-11" x="154.07" y="80.59" width="7.33" height="247.88"/><rect class="cls-11" x="498.51" y="80.59" width="6.49" height="247.88"/></g><path class="cls-8" d="M538.41,362H120.76V45.55H538.41Zm-412.65-5H533.41V50.55H125.76Z"/><path class="cls-8" d="M508,331.39H151.19V76.19H508Zm-351.78-5H503V81.19H156.19Z"/><path class="cls-5" d="M482.33,98.49v16.83c0,3.86,6,3.87,6,0V98.49c0-3.86-6-3.87-6,0Z"/><path class="cls-5" d="M482.33,126.28v34.16c0,3.86,6,3.87,6,0V126.28c0-3.86-6-3.87-6,0Z"/><text class="cls-12" transform="translate(316.93 188.19)">02</text></g></g></svg>